<svg width="310" height="121" viewBox="0 0 310 121" fill="none" xmlns="http://www.w3.org/2000/svg">
<g clip-path="url(#clip0_1153_209)">
<path fill-rule="evenodd" clip-rule="evenodd" d="M109.412 47.7631C112.613 48.0666 115.512 49.0733 118.133 50.9473C122.105 53.7866 125.251 58.0575 126.062 62.8881C126.872 67.7169 125.714 72.4319 122.89 76.421C121.004 79.0853 118.783 81.5058 115.755 82.7894C113.215 83.8658 110.561 84.3815 107.826 84.3815H77.6983V101.099C77.6983 102.276 77.2846 103.487 76.1127 103.487C74.9405 103.487 72.9413 102.276 72.9413 101.099V84.3815H42.0206C35.9185 84.3815 31.2915 81.4236 27.7495 76.421C24.9251 72.4319 23.7679 67.7167 24.5781 62.8881C25.3886 58.0575 28.5346 53.7866 32.5065 50.9473C35.1276 49.0733 38.0263 48.0666 41.2277 47.7631C42.0573 44.6384 43.7084 42.0899 45.9848 39.8025C49.0762 36.6964 52.7294 34.5708 57.0845 34.2302C57.9333 31.1976 59.6238 28.4981 61.8416 26.2696C65.2884 22.8061 71.2375 20.6973 76.1127 20.6973C80.9879 20.6973 85.3515 22.8061 88.7981 26.2696C91.0158 28.4981 92.7064 31.1976 93.5551 34.2302C97.9103 34.5708 101.564 36.6964 104.655 39.8025C106.931 42.0899 108.582 44.6384 109.412 47.7631ZM110.205 51.7433C110.207 51.8714 110.205 52.4115 110.205 52.5394C110.205 57.4384 108.102 61.8127 104.655 65.2762C101.208 68.7398 96.8446 70.8486 91.9694 70.8486C90.8798 70.8486 89.6988 70.3446 89.5909 69.2565C88.824 64.4704 89.9661 59.6727 92.7623 55.7236C95.5881 51.7324 99.8476 48.5774 104.655 47.7631C104.778 47.7421 105.324 47.7816 105.448 47.7631C104.751 45.7456 102.988 43.7022 101.483 42.1907C99.3552 40.0523 97.3192 38.6599 94.3479 38.2104C94.3549 38.4193 94.3479 38.7976 94.3479 39.0065C94.3479 43.9055 92.2449 48.2798 88.7981 51.7433C85.8751 54.6804 81.8011 56.8397 77.6983 57.3157V79.6052H107.826C112.908 79.6052 115.921 78.2763 118.926 74.0328C121.099 70.9639 121.928 67.3981 121.304 63.6841C120.682 59.972 118.807 56.3133 115.755 54.1315C114.022 52.8923 112.3 52.0984 110.205 51.7433ZM72.9413 79.6052V57.3157C68.8385 56.8397 64.7645 54.6804 61.8416 51.7433C58.395 48.2798 56.2917 43.9055 56.2917 39.0065C56.2917 38.7976 56.2847 38.4193 56.2917 38.2104C53.3204 38.6599 51.2844 40.0523 49.1561 42.1907C47.652 43.7022 45.8885 45.7456 45.1919 47.7631C45.3156 47.7816 45.8616 47.7421 45.9848 47.7631C50.792 48.5774 55.0518 51.7324 57.8774 55.7236C60.6735 59.6727 61.8156 64.4704 61.0487 69.2565C60.9408 70.3446 59.7598 70.8486 58.6702 70.8486C53.795 70.8486 49.4316 68.7398 45.9848 65.2762C42.5382 61.8127 40.4349 57.4384 40.4349 52.5394C40.4349 52.4115 40.4323 51.8714 40.4349 51.7433C38.3396 52.0981 36.6181 52.8923 34.885 54.1315C31.8329 56.3133 29.9581 59.972 29.3352 63.6841C28.712 67.3981 29.5407 70.9639 31.7137 74.0328C34.4943 77.9603 38.0461 79.6052 42.8134 79.6052H72.9413ZM106.241 51.7433C106.093 51.7635 105.594 51.7186 105.448 51.7433C101.754 52.3693 98.8978 55.0448 96.7265 58.1117C94.9417 60.6325 93.4549 63.7807 93.5551 66.8683C96.6068 66.4549 99.3028 64.2832 101.483 62.092C104.132 59.4306 106.241 56.3039 106.241 52.5394C106.241 52.3903 106.245 51.8923 106.241 51.7433ZM89.5909 38.2104C86.6282 38.6638 83.7846 40.0583 81.6625 42.1907C79.0139 44.8521 77.6983 48.7751 77.6983 52.5394V53.3354C80.6656 52.8845 83.5013 51.4909 85.6267 49.3552C88.2753 46.6937 89.5909 42.771 89.5909 39.0065C89.5909 38.7988 89.5998 38.4181 89.5909 38.2104ZM61.8416 34.2302C65.6305 34.8484 68.6384 37.0719 71.3556 39.8025C72.6483 41.1013 75.2567 42.16 76.1127 43.7828C76.9683 42.16 77.9915 41.1013 79.284 39.8025C82.0015 37.0719 85.0092 34.8486 88.7981 34.2302C88.0962 32.2805 87.0871 30.9213 85.6267 29.4538C82.9781 26.7924 79.8588 24.6775 76.1127 24.6775C72.3666 24.6775 67.6613 26.7924 65.0129 29.4538C63.5523 30.9213 62.5434 32.2805 61.8416 34.2302ZM44.3991 51.7433C44.3946 51.8923 44.3991 52.3903 44.3991 52.5394C44.3991 56.3039 46.5075 59.4306 49.1561 62.092C51.3368 64.2832 54.0329 66.4549 57.0845 66.8683C57.1848 63.7807 55.6977 60.6325 53.9132 58.1117C51.7416 55.0448 48.8861 52.3693 45.1919 51.7433C45.0455 51.7186 44.5462 51.7635 44.3991 51.7433ZM61.0487 38.2104C61.0396 38.4181 61.0487 38.7988 61.0487 39.0065C61.0487 42.771 62.3643 46.6937 65.0129 49.3552C67.1383 51.4909 69.9738 52.8845 72.9413 53.3354V52.5394C72.9413 48.7751 71.6257 44.8521 68.9771 42.1907C66.855 40.0583 64.0112 38.6638 61.0487 38.2104Z" fill="#166A5B"/>
<path d="M140.332 81.9941H158.567V77.2178H145.882V54.1323H140.332V81.9941ZM169.667 82.7902C172.22 82.7902 174.656 81.5101 176.01 79.606V81.9941H181.56V61.2968H176.01V73.2376C176.01 76.5208 173.767 78.0139 171.253 78.0139C168.391 78.0139 167.289 76.1906 167.289 73.2376V61.2968H161.739V74.0336C161.739 79.5513 164.523 82.7902 169.667 82.7902ZM184.731 66.0731H187.902V81.9941H193.452V66.0731H198.209V61.2968H193.452V60.5007C193.452 57.3145 193.703 56.5205 197.416 56.5205H198.209V51.7441H196.624C189.816 51.7441 187.902 53.701 187.902 60.5007V61.2968H184.731V66.0731ZM200.588 66.0731H203.759V81.9941H209.309V66.0731H214.859V61.2968H209.309V60.5007C209.309 57.3145 209.56 56.5205 213.273 56.5205H214.859V51.7441H213.273C206.465 51.7441 203.759 53.701 203.759 60.5007V61.2968H200.588V66.0731ZM223.58 82.7902C226.868 82.7902 229.207 80.9858 230.716 78.8099V81.9941H236.266V69.2573C236.266 63.9728 232.902 61.2968 226.751 61.2968C222.071 61.2968 218.572 63.2756 216.445 66.0731L221.202 68.4612C222.168 66.7128 223.599 65.277 225.959 65.277C228.976 65.277 230.716 67.0037 230.716 69.2573H225.166C219.364 69.2573 215.652 72.0702 215.652 76.4218C215.652 80.1132 219.016 82.7902 223.58 82.7902ZM225.166 78.0139C222.961 78.0139 221.202 77.937 221.202 76.4218C221.202 74.7898 222.787 73.2376 225.959 73.2376H230.716V74.8297C229.671 77.0835 227.719 78.0139 225.166 78.0139ZM250.537 82.7902C255.526 82.7902 259.064 80.3075 260.844 76.4218L256.087 74.0336C255.236 76.1707 253.012 78.0139 250.537 78.0139C247.326 78.0139 244.987 74.8317 244.987 71.6455C244.987 68.3816 247.326 66.0731 250.537 66.0731C252.935 66.0731 254.443 67.0037 255.294 69.2573L260.844 67.6652C259.219 63.7018 255.372 61.2968 250.537 61.2968C244.348 61.2968 239.437 65.4674 239.437 71.6455C239.437 77.7459 244.271 82.7902 250.537 82.7902ZM273.529 82.7902C278.519 82.7902 282.057 80.3075 283.836 76.4218L279.079 74.0336C278.228 76.1707 276.004 78.0139 273.529 78.0139C270.319 78.0139 267.979 74.8317 267.979 71.6455C267.979 68.3816 270.319 66.0731 273.529 66.0731C275.927 66.0731 278.228 67.0037 279.079 69.2573L283.836 67.6652C282.211 63.7018 278.364 61.2968 273.529 61.2968C267.34 61.2968 263.222 65.4674 263.222 71.6455C263.222 77.7459 267.263 82.7902 273.529 82.7902ZM287.007 81.9941H292.557V61.2968H287.007V81.9941ZM286.214 55.7244C286.214 57.706 288.167 58.9086 290.179 58.9086C292.229 58.9086 293.35 57.706 293.35 55.7244C293.35 53.704 292.229 51.7441 290.179 51.7441C288.206 51.7441 286.214 53.704 286.214 55.7244Z" fill="#166A5B"/>
</g>
<defs>
<clipPath id="clip0_1153_209">
<rect width="310" height="121" fill="white"/>
</clipPath>
</defs>
</svg>
